<mxfile host="app.diagrams.net" modified="2020-09-01T22:14:05.414Z" agent="5.0 (Windows NT 10.0; Win64; x64) AppleWebKit/537.36 (KHTML, like Gecko) Chrome/84.0.4147.135 Safari/537.36" etag="3G1arupxKQC6cNyqRxvR" version="13.6.4" type="github">
  <diagram id="TYIerCYk-YZk8FHapsdT" name="Page-1">
    <mxGraphModel dx="1422" dy="914" grid="1" gridSize="10" guides="1" tooltips="1" connect="1" arrows="1" fold="1" page="1" pageScale="1" pageWidth="1100" pageHeight="850" math="0" shadow="0">
      <root>
        <mxCell id="0" />
        <mxCell id="1" parent="0" />
        <mxCell id="TlGTppQdvmVBfOQzcZWs-2" style="edgeStyle=orthogonalEdgeStyle;rounded=0;orthogonalLoop=1;jettySize=auto;html=1;entryX=0.5;entryY=0;entryDx=0;entryDy=0;" edge="1" parent="1" source="TlGTppQdvmVBfOQzcZWs-1" target="TlGTppQdvmVBfOQzcZWs-4">
          <mxGeometry relative="1" as="geometry">
            <mxPoint x="340" y="330" as="targetPoint" />
          </mxGeometry>
        </mxCell>
        <mxCell id="TlGTppQdvmVBfOQzcZWs-3" style="edgeStyle=orthogonalEdgeStyle;rounded=0;orthogonalLoop=1;jettySize=auto;html=1;entryX=0.5;entryY=0;entryDx=0;entryDy=0;" edge="1" parent="1" source="TlGTppQdvmVBfOQzcZWs-1" target="TlGTppQdvmVBfOQzcZWs-7">
          <mxGeometry relative="1" as="geometry">
            <mxPoint x="760" y="310" as="targetPoint" />
          </mxGeometry>
        </mxCell>
        <mxCell id="TlGTppQdvmVBfOQzcZWs-1" value="PLAYER" style="rounded=1;whiteSpace=wrap;html=1;" vertex="1" parent="1">
          <mxGeometry x="485" y="80" width="130" height="80" as="geometry" />
        </mxCell>
        <mxCell id="TlGTppQdvmVBfOQzcZWs-11" style="edgeStyle=orthogonalEdgeStyle;rounded=0;orthogonalLoop=1;jettySize=auto;html=1;" edge="1" parent="1" source="TlGTppQdvmVBfOQzcZWs-4">
          <mxGeometry relative="1" as="geometry">
            <mxPoint x="280" y="380" as="targetPoint" />
          </mxGeometry>
        </mxCell>
        <mxCell id="TlGTppQdvmVBfOQzcZWs-4" value="to win" style="rounded=0;whiteSpace=wrap;html=1;" vertex="1" parent="1">
          <mxGeometry x="280" y="200" width="120" height="60" as="geometry" />
        </mxCell>
        <mxCell id="TlGTppQdvmVBfOQzcZWs-10" style="edgeStyle=orthogonalEdgeStyle;rounded=0;orthogonalLoop=1;jettySize=auto;html=1;" edge="1" parent="1" source="TlGTppQdvmVBfOQzcZWs-7">
          <mxGeometry relative="1" as="geometry">
            <mxPoint x="810" y="370" as="targetPoint" />
          </mxGeometry>
        </mxCell>
        <mxCell id="TlGTppQdvmVBfOQzcZWs-7" value="to loost" style="rounded=0;whiteSpace=wrap;html=1;" vertex="1" parent="1">
          <mxGeometry x="690" y="200" width="120" height="60" as="geometry" />
        </mxCell>
        <mxCell id="TlGTppQdvmVBfOQzcZWs-12" value="ESCAPE THE MAZE WITHIN THE TIME LIMIT, YOU ESCAPE THE MAZE BY REACHING A END POINT. THE END POINT CAN BE A VECTOR POSITION IN THE 3D WORLD, AS THE PLAYER REACHES THAT VECTOR, THE GAME STOPS AND THE PLAYER WINS" style="whiteSpace=wrap;html=1;aspect=fixed;" vertex="1" parent="1">
          <mxGeometry x="160" y="380" width="240" height="240" as="geometry" />
        </mxCell>
        <mxCell id="TlGTppQdvmVBfOQzcZWs-13" value="RUN OUT OF TIME, THE GAME WILL HAVE A LOT OF OBSTACLES, THE MAP WILL BE THE ONLY WAY TO FOLLOW THE CORRECT WAY OUT, AS YOU ARE FOLLOWING THE MAP, ZOMBIES WILL BE CHASING YOU SO SOME EXITS MIGHT GET BLOCKED SO YOU WOULD NEED TO MAKE SURE THAT NOT ONLY YOU STAY AWAY FROM THE ZOMBIES BUT ALSO ESCAPE THE MAZE WITHIN THE TIME" style="whiteSpace=wrap;html=1;aspect=fixed;" vertex="1" parent="1">
          <mxGeometry x="700" y="370" width="230" height="230" as="geometry" />
        </mxCell>
        <mxCell id="TlGTppQdvmVBfOQzcZWs-14" value="&lt;font style=&quot;font-size: 32px&quot; face=&quot;Verdana&quot;&gt;&lt;b&gt;THE MAZE&lt;/b&gt;&lt;/font&gt;" style="text;html=1;strokeColor=none;fillColor=none;align=center;verticalAlign=middle;whiteSpace=wrap;rounded=0;" vertex="1" parent="1">
          <mxGeometry x="440" y="230" width="240" height="140" as="geometry" />
        </mxCell>
      </root>
    </mxGraphModel>
  </diagram>
</mxfile>
